<svg width="368" height="115" viewBox="0 0 368 115" xmlns="http://www.w3.org/2000/svg"><title>logo-baseline-LV-couleur—vecto</title><defs><linearGradient x1="-3139.92%" y1="788.19%" x2="346.48%" y2="83.39%" id="a"><stop stop-color="#95BCD7" offset="0%"/><stop stop-color="#95BCD7" offset="15%"/><stop stop-color="#78C1DC" offset="36%"/><stop stop-color="#68C4DE" offset="46%"/><stop stop-color="#74C8EE" offset="75%"/><stop stop-color="#74C8EE" offset="100%"/></linearGradient></defs><g fill-rule="nonzero" fill="none"><path d="M64.213 94.83L44.525 78.672c-.495-.406-.58-1.135-.188-1.643L82 27.1c0-.942 0-2.1-.884-2.1h-.214c-.208.037-.403.13-.563.27L20.2 79.425c-.367.672-.223 1.51.348 2.02l42.485 15.43c.556.278 1.232.073 1.543-.467.312-.542.152-1.233-.365-1.58z" fill="#5BA0D1"/><path fill="url(#a)" d="M80 2l.82-.845L82 0"/><path d="M80.34 1.283L.3 71.923c-.236.21-.344.526-.283.835.06.308.28.56.578.664l18.932 6.524c.302.11.64.05.884-.16L82 27.19V0c-.575.4-1.13.828-1.66 1.283zM65 94.82c-.056-.258-.234-.473-.48-.578L21.043 80h-.452c-.152.026-.292.1-.4.21L5.247 93.82c-.2.192-.287.47-.227.74.06.267.256.486.52.575L65 115V94.82z" fill="#71CBF4"/><path fill="#5BA0D1" d="M108 73h-7V14h6.974M363.358 43.88c-3.04-3.177-7.26-4.944-11.65-4.878-8.825.404-15.758 7.725-15.708 16.588.05 8.863 7.066 16.105 15.896 16.408 3.12.05 6.177-.888 8.737-2.68 2.338-1.646 4.244-3.835 5.557-6.38h-7.668c-1.543 2.08-4.02 3.246-6.6 3.11-4.23.284-7.996-2.674-8.737-6.862l-.16-1.287h24.822c.688-5.114-.962-10.265-4.49-14.02zm-20.28 8.712l.214-1.314c1.186-3.703 4.62-6.215 8.497-6.215 3.876 0 7.31 2.512 8.495 6.215l.214 1.314h-17.42zM117.002 27.51c-.023-1.237.507-2.42 1.446-3.23.835-.803 1.945-1.26 3.106-1.28 1.145.02 2.24.478 3.052 1.28.89.852 1.394 2.028 1.394 3.257 0 1.23-.503 2.405-1.394 3.256-.822.786-1.912 1.234-3.052 1.254-1.156-.017-2.264-.464-3.106-1.254-.957-.818-1.49-2.026-1.446-3.283zM125.035 72h-7.203V39.12h7.256L125.035 72zM134 39.014h7.293v8.554c.98-2.413 2.61-4.512 4.71-6.068 2.32-1.73 5.172-2.61 8.072-2.486 2.867-.145 5.68.812 7.857 2.674 1.95 1.804 3.06 4.33 3.068 6.976V71.92h-7.293V52.086c-.077-1.495-.666-2.92-1.668-4.037-1.25-1.23-2.953-1.895-4.71-1.845-1.396-.012-2.78.26-4.064.802-1.202.502-2.29 1.238-3.202 2.165-.9.936-1.596 2.046-2.045 3.26-.493 1.31-.74 2.695-.727 4.09V72H134V39.014zM196.247 40.175l4.33 4.22c-1.936 1.763-9.093 8.573-11.03 10.336C191.834 57.75 200.632 69.983 203 73h-8.422c-1.668-2.27-8.475-11.244-10.116-13.515l-4.17 3.766v9.723H173V14h7.29v40.89c2.72-2.563 13.212-12.15 15.957-14.715zM220.973 72c-3.02-5.598-14.113-27.24-16.973-33h7.858C213.783 42.723 221 58.58 221 58.58s7.297-15.83 9.222-19.58H238c-2.887 5.76-14.113 27.402-17.027 33zM239.243 55.806c-.005-2.215.454-4.408 1.348-6.44 1.717-3.988 4.883-7.193 8.872-8.977 1.996-.906 4.167-1.37 6.363-1.363 1.36-.015 2.714.174 4.017.56 1.068.32 2.098.75 3.074 1.283.7.386 1.343.862 1.914 1.416.376.357.703.76.97 1.203V39h7.2v32.865h-7.118v-3.928c-.325.38-.676.738-1.052 1.07-.6.54-1.272.997-1.995 1.36-.962.49-1.974.876-3.02 1.15-1.32.34-2.68.5-4.044.48-2.298.024-4.576-.43-6.686-1.335-2.008-.824-3.838-2.02-5.392-3.527-3.02-2.987-4.71-7.047-4.692-11.275l.243-.054zm7.2-.454c-.014 1.306.223 2.603.7 3.82.446 1.142 1.125 2.18 1.995 3.047.88.87 1.924 1.56 3.074 2.03 2.53.983 5.342.983 7.873 0 1.155-.47 2.2-1.17 3.074-2.058.864-.892 1.542-1.946 1.994-3.1.47-1.19.707-2.46.7-3.74.01-1.27-.227-2.532-.7-3.714-.447-1.124-1.127-2.144-1.995-2.992-.89-.845-1.934-1.516-3.075-1.978-1.25-.506-2.587-.76-3.937-.748-1.344-.018-2.68.218-3.936.695-2.325.892-4.17 2.702-5.096 4.997-.47 1.19-.698 2.462-.674 3.74zM289 73h-7V14h7M328 71.954h-7.206V63.48c-1.016 2.333-2.596 4.377-4.597 5.953-2.302 1.775-5.16 2.677-8.066 2.547-2.933.172-5.82-.788-8.065-2.68-1.962-1.778-3.076-4.302-3.065-6.946V39h7.286v20.003c.067 1.473.647 2.876 1.64 3.968 1.284 1.204 3 1.842 4.76 1.77 1.38.02 2.752-.234 4.032-.75 1.183-.484 2.254-1.205 3.146-2.118.906-.934 1.618-2.036 2.097-3.245.514-1.306.77-2.7.754-4.102V39h7.205l.08 32.954z"/><path fill="#71CBF4" d="M106.6 83.173H101V81h14v2.173h-5.6V103h-2.576M117 103V81h2.34v9.66h10.293V81H132v22h-2.367V92.966H119.34V103M137 81h12v2.173h-9.7v7.647h9.54v2.173h-9.54v7.834h9.594V103H137M166.77 81.065c2.06-.253 4.144.24 5.875 1.39 1.52 1.3 2.383 3.214 2.35 5.217.077 2.028-.744 3.986-2.243 5.35-1.68 1.18-3.73 1.704-5.77 1.47h-3.525V103H161V81.065h5.77zm-3.313 11.155h3.5c1.425.124 2.855-.204 4.085-.937 1.04-.894 1.638-2.198 1.638-3.57 0-1.373-.598-2.678-1.638-3.572-1.234-.72-2.663-1.04-4.086-.908h-3.5v8.988zM177 101.015c2.422-2.4 4.817-4.853 7.186-7.28 1.997-1.956 4.126-3.86 4.232-6.616.083-1.27-.355-2.52-1.206-3.437-.85-.918-2.037-1.423-3.265-1.39-2.662 0-4.365 2.042-4.445 5.516h-2.316c-.06-2.02.615-3.988 1.89-5.516 1.305-1.507 3.183-2.344 5.137-2.288 1.792-.08 3.533.625 4.8 1.94 1.265 1.318 1.938 3.125 1.854 4.98-.228 2.534-1.426 4.868-3.327 6.48l-7.186 7.416H191V103h-14v-1.985zM200.736 81.065c2.05-.253 4.122.24 5.842 1.39 1.543 1.286 2.43 3.2 2.417 5.217.077 2.028-.74 3.986-2.23 5.35-1.67 1.18-3.71 1.704-5.737 1.47h-3.585V103H195V81.065h5.736zm-3.293 11.155h3.585c1.407.126 2.818-.192 4.037-.91 1.033-.894 1.628-2.198 1.628-3.57 0-1.374-.595-2.678-1.628-3.572-1.228-.722-2.648-1.04-4.063-.91h-3.56v8.962zM240 96.65c-1.87 3.96-5.913 6.45-10.31 6.347-5.734.06-10.646-4.064-11.546-9.693-.9-5.63 2.485-11.064 7.954-12.773 5.47-1.708 11.373.824 13.875 5.952h-2.728c-1.607-2.627-4.463-4.246-7.556-4.284-4.485-.072-8.39 3.03-9.31 7.393-.92 4.364 1.406 8.763 5.542 10.486 4.136 1.724 8.92.287 11.405-3.425H240zM242 91.66c-.064-4.665 2.696-8.907 6.987-10.737 4.292-1.83 9.264-.888 12.587 2.388 3.322 3.276 4.336 8.235 2.566 12.55-1.77 4.318-5.973 7.137-10.64 7.137-3.04.066-5.98-1.102-8.145-3.238-2.167-2.137-3.376-5.058-3.354-8.1zm2.473 0c.118 4.956 4.21 8.89 9.168 8.81 4.958-.077 8.924-4.138 8.886-9.095-.038-4.957-4.067-8.955-9.025-8.957-2.433-.008-4.767.97-6.468 2.712-1.7 1.74-2.624 4.097-2.56 6.53zM268 103V81h3.458l8.042 18.46L287.542 81H291v22h-2.305V83.44L280.277 103h-1.58l-8.552-19.56V103M301.77 81.065c2.06-.253 4.144.24 5.875 1.39 1.52 1.3 2.383 3.214 2.35 5.217.077 2.028-.744 3.986-2.243 5.35-1.678 1.183-3.73 1.707-5.77 1.47h-3.525V103H296V81.065h5.77zm-3.313 11.155h3.5c1.414.128 2.833-.19 4.06-.91 1.038-.894 1.636-2.198 1.636-3.57 0-1.374-.598-2.678-1.637-3.572-1.235-.722-2.663-1.04-4.087-.91h-3.42l-.053 8.962zM310.727 103H308l9.327-22h2.428L329 103h-2.727l-2.728-6.17h-10.418l-2.4 6.17zm7.828-19.237L314.11 94.79h8.917l-4.472-11.027zM346.587 99.378V81H349v22h-2.413l-13.174-18.512V103H331V81h2.52M358.24 95.273L351 81h2.742l5.785 11.885L365.257 81H368l-7.24 14.273V103h-2.52"/></g></svg>
