<svg xmlns="http://www.w3.org/2000/svg" viewBox="0 0 936.77 512.62">
  <path d="M386.65 280.33q-11 15.8-19.8 26.36t-16 17.54a112.81 112.81 0 0 1-13 11.14 120.18 120.18 0 0 1-10.9 7q4.38-28.38 8.59-53.08 1.88-10.45 4.86-27.63t4.64-26.7l3-17q1.31-7.47 2.09-11.9a14.84 14.84 0 0 0 .5-3.5q0-4.83-3.51-7.08a15.69 15.69 0 0 0-8.66-2.25 31 31 0 0 0-9.18 1.5 34.79 34.79 0 0 0-9.33 4.57 34.24 34.24 0 0 0-7.83 7.41 24.14 24.14 0 0 0-4.67 10l-13.34 62.24a94.36 94.36 0 0 1-2.91 13.41 92.89 92.89 0 0 1-5.91 15.59 52.56 52.56 0 0 1-8.65 12.91q-5 5.36-11.15 5.36a10 10 0 0 1-6.33-1.93 13.76 13.76 0 0 1-4-5 24.37 24.37 0 0 1-2.09-7.07 57 57 0 0 1-.58-8.15 98.52 98.52 0 0 1 2-18.38l5.35-27.9q3.36-17.58 5.39-28.14a107.39 107.39 0 0 1 5-18.21 26.4 26.4 0 0 0 1.39-4.66 21.89 21.89 0 0 0 .41-4c0-4.11-1.4-7.13-4.17-9.07a16.9 16.9 0 0 0-10-2.92 29.12 29.12 0 0 0-14 3.91 26.27 26.27 0 0 0-11 11.41q-5.16 10.48-9.15 20.72t-6.92 28q-2.92 17.73-4.92 29.79a161.67 161.67 0 0 0-1.87 24.29 64 64 0 0 1-7.07 4.94 57.07 57.07 0 0 1-7.82 3.86 19.85 19.85 0 0 1-7.32 1.51q-3.33 0-5.66-5.71c-1.56-3.81-2.33-8.73-2.33-14.79a197.61 197.61 0 0 1 1.16-21.92q1.17-10.32 3.5-22.93t3.49-23a197.44 197.44 0 0 0 1.17-22q0-7.56-5.41-11.67a21.25 21.25 0 0 0-13.23-4.12 16.46 16.46 0 0 0-11.82 4.62A81.39 81.39 0 0 0 149 209q-5 6.89-10.74 16t-10.81 17.3q-5.09 8.24-9.41 16.55t-4.66 8.82l-1.83-2a10.84 10.84 0 0 1 .17-1.34 37.87 37.87 0 0 1 1-4.87q3-10.41 4.16-16 1.5-6.39 2.66-10.75a105.79 105.79 0 0 0 2-11.43 89.44 89.44 0 0 0 .83-12.43q0-7.56-5-11.67a18.28 18.28 0 0 0-12-4.12 19.47 19.47 0 0 0-12.9 4.54A58.7 58.7 0 0 0 82.22 209q-5 6.89-10.49 15.88T61.5 242.12q-4.76 8.22-8.82 16.63c-2.73 5.6-4.19 8.56-4.41 8.9l-1.84-2q2.51-14.1 4.83-25.53c.11-.23.55-3.13 1.33-8.74.44-2.91.78-5.76 1-8.56s.58-5.43.75-7.9.25-4.65.25-6.55a80 80 0 0 0-.33-8.23 7.09 7.09 0 0 0-2.08-4.62 9.53 9.53 0 0 0-5.33-2 90.06 90.06 0 0 0-9.9-.42 32.73 32.73 0 0 0-6.83.59 9.72 9.72 0 0 0-4.57 2.31 15.77 15.77 0 0 0-3.42 5 69.35 69.35 0 0 0-3.13 8.53q-1.66 5.21-3.66 13.44t-3.94 18.14Q9.48 251 6.91 264.34T3 288.05Q1.65 298.43.83 307.82T0 324.07a101.85 101.85 0 0 0 .75 12.52 35.31 35.31 0 0 0 3 10.82 18.54 18.54 0 0 0 6.41 7.6q4.15 2.82 11 2.82a20.45 20.45 0 0 0 9.73-2.34q4.41-2.34 7.74-9 11.49-22.45 18.73-37.94t11.89-25.21q4.67-9.72 7.25-14.73a46.22 46.22 0 0 1 4.57-7.54h2.5q-2.67 15.38-4.49 28.75-.84 5.67-1.67 11.45t-1.5 10.94c-.44 3.46-.78 6.52-1 9.2s-.33 4.73-.33 6.18a94.72 94.72 0 0 0 .56 10.41 38.07 38.07 0 0 0 2.33 9.78 18.77 18.77 0 0 0 4.92 7.22 12.25 12.25 0 0 0 8.48 2.82 29.6 29.6 0 0 0 12.32-2.4q5.32-2.39 9.65-9.34l33.79-85.5h2.49q-1.32 12.12-2.12 23.95t-.7 22.47a173.65 173.65 0 0 0 1.08 20.22 71.24 71.24 0 0 0 3.62 16.1 27 27 0 0 0 6.53 10.68 14.13 14.13 0 0 0 10.07 3.83 70.08 70.08 0 0 0 21.8-3.15 83.85 83.85 0 0 0 17.73-8.07 126.14 126.14 0 0 0 10.62-7.36 42.58 42.58 0 0 0 4.94 6.35 40.42 40.42 0 0 0 13.4 9.32 39.18 39.18 0 0 0 15.56 3.24 42.17 42.17 0 0 0 18.89-4.85 87.7 87.7 0 0 0 18.72-12.77l-3.66 20.12q-10.49 9.15-18.05 17.13t-19.23 21.11a123 123 0 0 0-11.15 14.1q-5.32 8-7.82 12.22t-8.66 15.21q-11 19.62-9.65 37.24a38.72 38.72 0 0 0 4.49 16.22 30.78 30.78 0 0 0 9.79 10.89 44.19 44.19 0 0 0 13.21 5.9 61.46 61.46 0 0 0 15.7 1.91 54 54 0 0 0 19.26-3.33 49.56 49.56 0 0 0 15-8.74 66.36 66.36 0 0 0 11.38-13.07 85.58 85.58 0 0 0 8.3-15.4 127 127 0 0 0 5.48-17 141.43 141.43 0 0 0 3.24-16.44q.9-7.2 1.92-15.14.24-3.31 1.19-9.44 2.19-21.46 3.88-29.36c1.13-5.28 3.2-8.91 6.24-10.9q18.7-12.48 22-15.31 11-8.73 12.15-9.56 3.66-2.64 12-10.25 5.73-5.24 10.73-10.87a67.21 67.21 0 0 0 7.66-10.41zM284.9 411.4q-1 8.31-1.73 14.24a62.05 62.05 0 0 1-2.23 10.75q-2.65 9-4.41 14.4t-4 11a52.12 52.12 0 0 1-4.25 8.66 31.84 31.84 0 0 1-4.66 5.65 14.66 14.66 0 0 1-5.82 3.58 23.6 23.6 0 0 1-7.16 1q-11 0-5.48-16a191.22 191.22 0 0 1 18-37.28q11.34-18.3 23-26.62-.26 2.31-1.26 10.62z" fill="#333"/>
  <path d="M904.56 0H774.11a40.41 40.41 0 0 0-36.71 23.54l-6.65 14.54H493.86a41.72 41.72 0 0 0-41.31 36.1L449.19 99h-53.73a32.22 32.22 0 0 0-31.91 36.51l20.86 148 5.7 40.42 13.72 97.1H882.6l53.87-384.52A32.19 32.19 0 0 0 904.56 0zm-10.84 111.44L866 303l-24.84-176.12A32.19 32.19 0 0 0 809.25 99H485.9A27.35 27.35 0 0 1 512 80h354.55a27.45 27.45 0 0 1 27.17 31.44z" fill="#3fa9f5"/>
  <path d="M893.72 111.44L866 303l-24.84-176.12A32.19 32.19 0 0 0 809.25 99H485.9A27.35 27.35 0 0 1 512 80h354.55a27.45 27.45 0 0 1 27.17 31.44z" stroke="#fff" stroke-miterlimit="10" stroke-width="20.59" fill="#fff"/>
  <path d="M527.21 178.35h38v115.38h44v33.37h-82zm69.55 0h39l30.16 104.33 30.35-104.33h39.2L685.61 327.1h-39.2z" fill="#fff"/>
</svg>
