<svg xmlns="http://www.w3.org/2000/svg" viewBox="0 0 1034 570.92">
  <path fill="#fff" d="M422.15 317.3q-12 17.25-21.63 28.78t-17.44 19.15a124.43 124.43 0 0 1-14.2 12.17A131.8 131.8 0 0 1 357 385q4.78-31 9.39-58 2-11.42 5.3-30.17t5.07-29.14L380 249.2q1.42-8.14 2.28-13a16.09 16.09 0 0 0 .54-3.81q0-5.28-3.82-7.74a17.22 17.22 0 0 0-9.46-2.45 33.88 33.88 0 0 0-10 1.63 37.93 37.93 0 0 0-10.19 5 37.12 37.12 0 0 0-8.55 8.09 26.45 26.45 0 0 0-5.1 10.9l-14.56 68a104 104 0 0 1-3.18 14.64 102 102 0 0 1-6.45 17 57.26 57.26 0 0 1-9.51 14.08q-5.46 5.86-12.17 5.86a10.94 10.94 0 0 1-6.91-2.12 15 15 0 0 1-4.36-5.5 26.6 26.6 0 0 1-2.27-7.72 60.24 60.24 0 0 1-.64-8.9 107.71 107.71 0 0 1 2.16-20.07q2.16-11.26 5.84-30.46l5.88-30.72A117.89 117.89 0 0 1 295 242a28.92 28.92 0 0 0 1.52-5.08 24.31 24.31 0 0 0 .44-4.37q0-6.72-4.54-9.91a18.52 18.52 0 0 0-10.9-3.18 31.7 31.7 0 0 0-15.26 4.27 28.72 28.72 0 0 0-12 12.45q-5.64 11.45-10 22.63t-7.55 30.52l-5.37 32.53a175.8 175.8 0 0 0-2.09 26.63 69.4 69.4 0 0 1-7.72 5.39 61.75 61.75 0 0 1-8.54 4.21 21.57 21.57 0 0 1-8 1.65q-3.63 0-6.18-6.23t-2.54-16.14a215.85 215.85 0 0 1 1.27-23.94q1.28-11.26 3.82-25t3.81-25.13a215.76 215.76 0 0 0 1.28-24q0-8.27-5.91-12.75a23.14 23.14 0 0 0-14.45-4.5 18 18 0 0 0-12.9 5 89.46 89.46 0 0 0-10.54 12.38q-5.44 7.52-11.72 17.42t-11.83 18.91q-5.55 9-10.27 18.07t-5.08 9.63l-2-2.2a11.5 11.5 0 0 1 .18-1.47 43.58 43.58 0 0 1 1.09-5.32q3.27-11.37 4.54-17.42 1.63-7 2.91-11.74a112.56 112.56 0 0 0 2.18-12.47 96.19 96.19 0 0 0 .91-13.57q0-8.27-5.45-12.75A19.92 19.92 0 0 0 115 222a21.21 21.21 0 0 0-14.08 5 64.08 64.08 0 0 0-11.17 12.47q-5.44 7.53-11.43 17.31t-11.18 18.8q-5.18 9-9.63 18.16t-4.81 9.72l-2-2.2q2.71-15.4 5.27-27.88c.11-.25.6-3.42 1.45-9.54.48-3.17.85-6.29 1.09-9.35s.64-5.93.82-8.62.27-5.08.27-7.16a87.36 87.36 0 0 0-.36-9 7.77 7.77 0 0 0-2.27-5 10.34 10.34 0 0 0-5.82-2.2 99.57 99.57 0 0 0-10.81-.51 35.34 35.34 0 0 0-7.45.65 10.55 10.55 0 0 0-5 2.57 17.18 17.18 0 0 0-3.72 5.4 75.34 75.34 0 0 0-3.46 9.38q-1.82 5.69-4 14.67t-4.26 19.81q-2.1 10.81-4.91 25.36t-4.27 25.89Q1.81 337.07.91 347.32T0 365.06a110.46 110.46 0 0 0 .82 13.67 38.44 38.44 0 0 0 3.27 11.82 20.14 20.14 0 0 0 7 8.28q4.55 3.09 12 3.09a22.38 22.38 0 0 0 10.63-2.55q4.82-2.56 8.45-9.79 12.53-24.52 20.43-41.44t13-27.52q5.08-10.62 7.9-16.08a51.65 51.65 0 0 1 5-8.24h2.73q-2.91 16.8-4.91 31.4-.9 6.19-1.82 12.5t-1.63 11.95c-.48 3.77-.85 7.12-1.09 10s-.36 5.17-.36 6.75a105 105 0 0 0 .58 11.33 40.77 40.77 0 0 0 2.55 10.67 20.33 20.33 0 0 0 5.45 7.93q3.45 3.09 9.27 3.09a32.39 32.39 0 0 0 13.44-2.62q5.82-2.61 10.54-10.2l36.89-93.34h2.72q-1.45 13.2-2.27 26.13t-.81 24.49a190.89 190.89 0 0 0 1.18 22.07 77.56 77.56 0 0 0 3.91 17.63 29.51 29.51 0 0 0 7.13 11.66 15.46 15.46 0 0 0 11 4.18 76.35 76.35 0 0 0 23.8-3.44 91.09 91.09 0 0 0 19.35-8.82 136.58 136.58 0 0 0 11.6-8 46.3 46.3 0 0 0 5.39 6.93 44.25 44.25 0 0 0 14.63 10.17 42.78 42.78 0 0 0 17 3.54 46.06 46.06 0 0 0 20.63-5.3 95.76 95.76 0 0 0 20.42-14l-4 22q-11.44 10-19.71 18.7t-21 23.05a135.31 135.31 0 0 0-12.18 15.42q-5.82 8.71-8.54 13.35T241 492.14q-12 21.42-10.53 40.66a42.28 42.28 0 0 0 4.89 17.7A33.54 33.54 0 0 0 246 562.39a47.83 47.83 0 0 0 14.42 6.44 66.91 66.91 0 0 0 17.14 2.09 59 59 0 0 0 21-3.64 54.11 54.11 0 0 0 16.44-9.54 72.18 72.18 0 0 0 12.42-14.27 93.48 93.48 0 0 0 9.07-16.82 138.25 138.25 0 0 0 6-18.54 153.29 153.29 0 0 0 3.51-17.95q1-7.86 2.1-16.54c.18-2.41.61-5.84 1.31-10.3q2.38-23.43 4.23-32.06t6.81-11.9q20.43-13.62 24.06-16.71 12-9.52 13.26-10.44 4-2.88 13.09-11.18 6.18-5.79 11.63-11.92a73.49 73.49 0 0 0 8.36-11.37zM311.06 460.41q-1.11 9.07-1.9 15.54a67.45 67.45 0 0 1-2.43 11.74q-2.91 9.81-4.81 15.72t-4.36 12a56.94 56.94 0 0 1-4.64 9.45 35.7 35.7 0 0 1-5.08 6.18 16.18 16.18 0 0 1-6.36 3.91 26.2 26.2 0 0 1-7.82 1.09q-12 0-6-17.44a207.67 207.67 0 0 1 19.66-40.7q12.38-20 25.12-29.07-.28 2.5-1.38 11.58z"/>
  <path d="M987.61 11.24H845.18a44.11 44.11 0 0 0-40.08 25.7l-7.27 15.88H539.2a45.55 45.55 0 0 0-45.1 39.41l-3.67 27.12h-58.66a35.17 35.17 0 0 0-34.84 39.86l22.78 161.6 6.21 44.13 15 106h522.71l58.81-419.84a35.14 35.14 0 0 0-34.83-39.86zm-11.84 121.67L945.5 342.09l-27.12-192.32a35.14 35.14 0 0 0-34.84-30.42h-353A29.85 29.85 0 0 1 559 98.6h387.1a30 30 0 0 1 29.67 34.31z" stroke="#fff" stroke-miterlimit="10" stroke-width="22.48" fill="none"/>
  <path d="M975.77 132.91L945.5 342.09l-27.12-192.32a35.14 35.14 0 0 0-34.84-30.42h-353A29.85 29.85 0 0 1 559 98.6h387.1a30 30 0 0 1 29.67 34.31z" stroke="#fff" stroke-miterlimit="10" stroke-width="22.48" fill="#fff"/>
  <path fill="#fff" d="M575.61 206h41.48v126h48.06v36.43h-89.54zm75.93 0h42.58L727 319.87 760.18 206H803l-54.45 162.37h-42.8z"/>
</svg>
